# xmcd
#
# Track frame offsets:
#	150
#	64068
#	142034
#
# Disc length: 2928 seconds
#
# Revision: 1
# Processed by: cddbd v1.5.2PL0 Copyright (c) Steve Scherf et al.
# Submitted via: audiograbber 1.83.01
#
DISCID=280b6e03
DTITLE=Apalusa - Obadiah
DYEAR=2008
DGENRE=Ambient
TTITLE0=Obadiah Part 1
TTITLE1=Obadiah Part 2
TTITLE2=How Do You Like Your Blue-Eyed Boy, Mr Death?
EXTD=
EXTT0=
EXTT1=
EXTT2=
PLAYORDER=
